<svg width="28" height="27" viewBox="0 0 28 27" fill="none" xmlns="http://www.w3.org/2000/svg">
<path d="M14.3704 24.2294C14.2483 24.0767 14.1262 24.1683 14.1262 24.0767C13.3933 24.2599 12.0192 23.7714 11.4391 23.8324C11.5612 23.6492 11.2558 23.6798 11.2558 23.5576C11.1337 23.7408 11.0116 23.5576 10.8283 23.6187C10.6451 23.1607 9.91229 23.4965 9.82068 22.9164C9.39319 22.9164 9.24051 22.6721 8.81302 22.4278C8.84355 22.3973 8.87409 22.3973 8.90462 22.3667C8.69088 22.3362 8.69088 22.2141 8.50766 22.2141L8.56873 22.0919C8.23285 22.0308 8.1107 21.5117 7.62214 21.3285C7.46946 21.298 7.13358 20.7789 6.95036 20.6568C6.85876 20.5957 6.70608 20.5957 6.91983 20.5652C6.88929 20.5346 6.88929 20.4735 6.91983 20.443C6.70608 20.3819 6.67555 20.1987 6.40073 20.1071C6.37019 20.0155 6.4618 19.9544 6.40073 19.8934C6.33966 19.8628 6.24805 19.9239 6.18698 19.8934C6.15645 20.443 6.76715 20.5041 6.95036 20.9621C6.88929 20.901 6.79769 20.7178 6.73662 20.84C6.70608 20.9316 6.9809 21.2675 6.9809 21.0843C6.88929 21.1453 6.85876 20.9926 6.91983 20.9621C7.01143 21.1148 7.19465 21.0843 7.19465 21.2064C7.10304 21.298 6.9809 21.1148 7.01143 21.2675C7.28625 21.4201 7.25572 21.5728 7.40839 21.7866C7.28625 21.6339 7.25572 21.9087 7.13358 21.7866C7.10304 21.3285 6.58394 21.4201 6.58394 20.9621C6.52287 20.8094 6.4618 20.9316 6.37019 20.8705C6.49233 20.7484 6.00377 20.3209 6.00377 20.4735C5.85109 20.2903 5.9427 20.2293 5.91216 20.1071C5.79002 20.0766 5.88163 20.2293 5.79002 20.1377C5.91216 19.9239 5.63735 19.6491 5.45413 19.4353L5.57628 19.3743C5.36253 19.2521 5.33199 19.0079 5.17932 18.733C4.9961 19.0079 5.54574 19.6186 5.45413 19.7407C5.45413 19.7712 5.66788 20.0155 5.72895 20.1377C5.97323 20.5652 6.15645 21.0843 6.49233 21.3285C6.43126 21.298 6.4618 21.1148 6.5534 21.2064C6.5534 21.298 6.49233 21.3896 6.49233 21.4812C6.67555 21.6644 6.82822 21.8171 7.01143 22.0003C6.61448 21.756 6.21752 21.5117 5.9427 21.1453C6.09538 21.1148 6.24805 21.3896 6.37019 21.3591C6.06484 21.1148 6.15645 21.0232 6.03431 20.7178C5.91216 20.6262 6.06484 20.84 5.9427 20.8705C5.54574 20.5041 5.24039 20.2903 5.05718 19.9544C5.08771 19.9239 5.11825 19.8934 5.11825 19.8323C5.08771 19.8018 5.08771 19.8018 5.05718 19.7712C5.24039 19.9544 5.30146 20.1071 5.5152 20.1377C5.4236 20.0461 5.5152 20.0155 5.39306 19.9239C5.33199 19.8018 5.24039 19.985 5.17932 19.8934C5.24039 19.8018 5.17932 19.6796 5.17932 19.588C5.11825 19.588 5.05718 19.588 5.02664 19.4964C4.96557 19.4659 4.93503 19.4964 4.9045 19.5575C4.87396 19.527 4.87396 19.4659 4.84343 19.4353V19.4048C4.81289 19.3743 4.78236 19.3132 4.75182 19.2827C4.50754 18.6414 4.35486 17.7864 4.01898 17.2368C4.11058 16.8704 3.95791 16.1375 3.8663 15.9543C3.95791 15.8016 3.89683 15.0993 3.83576 14.9772C3.68309 15.0383 3.8663 15.3742 3.71362 15.4658C3.56095 14.794 3.80523 14.0306 3.74416 13.4199C3.80523 13.4199 3.8663 13.4199 3.8663 13.3894C3.77469 13.2978 3.92737 13.1145 3.89683 12.9008C4.01898 12.626 3.62202 13.2978 3.62202 13.5726C3.59148 13.6336 3.46934 13.5726 3.49988 13.7252C3.49988 13.939 3.56095 14.3665 3.4388 14.6718C3.37773 14.6718 3.37773 14.6108 3.31666 14.6413C3.28613 14.794 3.25559 14.9772 3.22506 15.1299C3.19452 15.0688 3.16399 14.9772 3.16399 14.9467C3.01131 14.1833 3.16399 13.2978 3.10292 12.6565C3.22506 12.6565 3.22506 12.4733 3.31666 12.4122C3.28613 12.6565 3.22506 12.9619 3.37773 13.0229C3.49988 11.8321 3.74416 10.519 4.29379 9.23656C4.69075 8.28996 5.27092 7.34337 5.97323 6.57999C6.0343 6.67159 5.9427 6.88534 5.97323 6.97695C6.58394 6.3357 6.9809 5.57232 7.65268 5.14483C7.68321 5.2975 7.37786 5.41964 7.37786 5.54179C7.65268 5.26697 7.74428 5.35857 8.04963 5.26697C8.14124 5.14483 7.92749 5.26697 7.89696 5.14483C8.08017 5.02269 8.20231 4.87001 8.32445 4.7784C8.32445 4.80894 8.29392 4.80894 8.29392 4.83947C8.62981 4.74787 8.66034 4.56466 8.90462 4.50359C8.87409 4.47305 8.81302 4.44252 8.72141 4.47305C8.78248 4.44252 8.87409 4.38144 8.96569 4.35091C8.93516 4.35091 8.93516 4.38145 8.90462 4.38145C9.08783 4.28984 8.93516 4.41198 8.93516 4.47305C8.96569 4.47305 8.99623 4.44252 8.99623 4.44252C8.81302 4.56466 8.69088 4.62573 8.62981 4.83947C8.72141 4.7784 8.75195 4.83947 8.87409 4.74787C8.99623 4.6868 8.84355 4.59519 8.93516 4.53412C9.02676 4.59519 9.14891 4.56466 9.24051 4.56466C9.24051 4.50359 9.27105 4.44252 9.33212 4.41198C9.36265 4.35091 9.33212 4.32037 9.30158 4.32037C9.33212 4.28984 9.36265 4.28984 9.42372 4.2593C9.42372 4.2593 9.45426 4.2593 9.45426 4.28984C9.97336 4.04556 10.5535 3.83181 11.1032 3.6486C11.4391 3.61806 11.8665 3.61806 12.0498 3.40432C11.9887 3.40432 11.9276 3.43485 11.8971 3.40432C11.9276 3.40432 11.9887 3.37378 12.0192 3.37378C12.0803 3.43485 12.1719 3.37378 12.0803 3.49592C12.1108 3.49592 12.1108 3.49592 12.1414 3.46539C12.1414 3.49592 12.1414 3.49592 12.1719 3.52646C12.2024 3.52646 12.233 3.49592 12.2635 3.43485C12.294 3.43485 12.3246 3.43485 12.3551 3.40432L12.3246 3.43485C12.5689 3.37378 12.7826 3.40432 13.1185 3.34324C13.1185 3.31271 13.1185 3.28217 13.1185 3.25164C13.1796 3.25164 13.2101 3.2211 13.2712 3.2211V3.25164C13.3933 3.19057 13.5155 3.31271 13.5155 3.25164C13.546 3.25164 13.546 3.25164 13.5765 3.25164C13.5765 3.31271 13.546 3.34324 13.546 3.37378C13.6987 3.37378 13.7903 3.37378 13.8513 3.28217C13.8208 3.25164 13.7903 3.25164 13.7597 3.25164C13.8208 3.25164 13.8819 3.2211 13.9429 3.19057C14.0346 3.2211 14.0651 3.25164 14.0651 3.37378C14.2178 3.09896 14.7063 3.43485 14.9201 3.37378C15.0117 3.37378 14.9811 3.25164 15.0422 3.19057C15.0728 3.19057 15.1033 3.19057 15.1338 3.19057C15.2865 3.31271 15.5002 3.43485 15.7751 3.46539C15.5308 3.40432 15.8056 3.37378 15.8361 3.34324C15.7751 3.34324 15.7751 3.31271 15.7751 3.28217C15.8667 3.28217 15.9583 3.31271 16.0499 3.31271C16.0499 3.37378 16.0804 3.40432 16.1415 3.40432C16.2026 3.40432 16.2026 3.37378 16.2026 3.31271C16.2942 3.31271 16.3552 3.31271 16.4468 3.34324C16.4163 3.46539 16.5995 3.49592 16.6606 3.58753C16.4163 3.52646 16.1415 3.43485 16.0499 3.58753C17.027 3.80127 18.0957 4.10663 19.1339 4.62573C19.1339 4.62573 19.1339 4.62573 19.1339 4.65626H19.1645C19.3477 4.74787 19.5309 4.83947 19.7141 4.93108C19.8363 4.99215 19.9279 5.05322 20.05 5.14483C20.05 5.17536 20.05 5.2059 20.1111 5.2059H20.1416C20.2638 5.2975 20.3859 5.35857 20.508 5.45018C20.6302 5.63339 20.7523 5.87767 20.9661 5.8166C21.4241 6.51892 21.9127 6.79373 22.3096 7.52658C22.3402 7.40444 22.4318 7.8014 22.5844 7.83193C22.3402 7.8014 22.7371 7.98461 22.4928 7.95407C22.7066 8.16782 22.7676 8.25943 22.7982 8.50371C22.7371 8.38157 22.7066 8.35103 22.676 8.47317C22.6455 8.65639 22.8898 8.44264 22.9814 8.62585C22.7982 8.62585 22.8593 8.74799 22.8898 8.90067C22.9814 8.80906 22.9509 8.71746 23.0425 8.74799C23.1646 8.87013 22.9814 8.90067 23.0119 8.99227C23.1035 8.87013 23.1341 8.9312 23.2562 8.99227C23.1035 9.02281 23.3478 9.23656 23.1646 9.14495C23.2867 9.29763 23.3173 9.38923 23.2562 9.54191C23.1341 9.3587 23.2257 9.23656 23.0425 9.26709C23.4089 9.57245 23.2257 10.2748 23.6532 10.3358C23.3784 10.3969 23.6532 10.519 23.5005 10.5496C23.6837 10.6106 23.5921 10.8549 23.8058 10.916C23.7753 11.0687 23.7142 11.1603 23.6837 11.313C23.7753 11.4351 23.8058 11.6794 23.9585 11.7099C23.8669 11.8015 23.928 12.0458 23.8364 12.1374C23.9585 12.0763 24.0196 12.0763 24.1112 12.1985C23.9585 12.3206 24.0807 12.4428 23.9891 12.4733C24.2639 13.1756 23.928 14.6108 24.0807 15.1604C23.8975 15.0688 23.9585 15.3742 23.8364 15.3742C24.0501 15.4658 23.8669 15.6184 23.9585 15.7711C23.531 16.0154 23.9585 16.6872 23.3784 16.8398C23.4394 17.2673 23.1951 17.4506 23.0119 17.9086C22.9814 17.878 22.9814 17.8475 22.9509 17.817C22.9203 18.0307 22.7982 18.0613 22.8593 18.2445L22.7371 18.1834C22.7371 18.5193 22.218 18.7025 22.0959 19.2216C22.0653 19.3743 21.6073 19.7712 21.4852 19.985C21.4241 20.0766 21.4546 20.2293 21.3936 20.0155C21.363 20.0461 21.302 20.0461 21.2714 20.0461C21.2409 20.2598 21.0577 20.3209 20.9966 20.5957C20.9355 20.6262 20.8439 20.5346 20.7829 20.6262C20.7829 20.6873 20.8439 20.7789 20.8134 20.84C21.363 20.8094 21.363 20.1682 21.7905 19.9544C21.76 20.0461 21.5768 20.1377 21.6989 20.1987C21.7905 20.1987 22.0653 19.8934 21.9127 19.9239C22.0043 19.985 21.8211 20.0461 21.7905 20.0155C21.9432 19.8934 21.8821 19.7407 22.0043 19.7102C22.0959 19.7712 21.9127 19.9239 22.0959 19.8934C22.218 19.6186 22.3707 19.588 22.5539 19.4353C22.4318 19.5575 22.7066 19.588 22.5844 19.7102C22.1264 19.8018 22.2791 20.3209 21.8211 20.3819C21.6989 20.4735 21.7905 20.5041 21.76 20.5957C21.6073 20.5041 21.2714 21.0232 21.3936 20.9926C21.2409 21.1453 21.1493 21.0843 21.0271 21.1148C20.9966 21.2369 21.1493 21.1453 21.0882 21.2369C20.8745 21.1453 20.5996 21.4507 20.4164 21.6644L20.3248 21.5728C20.2332 21.8171 19.9889 21.8476 19.7141 22.0308C20.0195 22.1835 20.5386 21.5423 20.6912 21.6339C20.7218 21.6339 20.9661 21.3896 21.0577 21.298C21.4546 20.9926 21.9432 20.7484 22.1264 20.4125C22.0959 20.4735 21.9127 20.4735 22.0043 20.3819C22.0959 20.3514 22.1875 20.4125 22.2791 20.4125C22.7676 19.7407 23.3784 19.1911 23.8364 18.3971C23.8669 18.3666 23.8975 18.3055 23.928 18.2445C23.8669 18.4277 23.7753 18.5804 23.7142 18.7636C23.2257 19.0995 23.0425 20.0766 22.4623 20.2293C22.4928 20.5652 22.1875 20.6568 22.0348 21.0537C21.9432 21.1759 21.8821 20.9621 21.7905 21.1148C21.8821 21.5423 21.0271 21.5117 21.0577 21.9087C20.9966 21.9392 20.905 21.9698 20.8439 22.0308H20.8134C20.7829 22.0614 20.7829 22.0614 20.7523 22.0919C20.5996 22.1835 20.4775 22.2751 20.3554 22.3667C19.9279 22.611 19.3477 22.7942 18.8897 23.0385V23.008C18.7675 23.069 18.6148 23.0385 18.6454 23.1607C18.5538 23.2217 18.4622 23.2828 18.3706 23.3439C18.34 23.3439 18.34 23.3439 18.3095 23.3439C18.3095 23.3439 18.279 23.3133 18.2484 23.3133C18.1874 23.3133 18.1874 23.3133 18.1568 23.3439C17.7599 23.3744 17.2408 23.5576 17.0881 23.6798C16.9354 23.5881 16.2331 23.7408 16.111 23.8019C16.172 23.8935 16.3552 23.8019 16.5079 23.8019C16.4163 23.8324 16.3247 23.863 16.2942 23.924C16.2636 23.924 16.2636 23.924 16.2331 23.924C16.2026 23.8324 16.111 23.924 16.0804 23.8935H16.111C16.0804 23.7714 15.9888 23.7103 15.8361 23.7408C15.8361 23.8019 15.8361 23.8324 15.8056 23.8935C15.8667 23.8935 16.0499 23.8019 16.0499 23.8935C16.0193 23.8935 16.0193 23.924 16.0499 23.924C15.9888 23.9851 15.8972 23.9851 15.8361 24.0156C15.714 24.0156 15.5613 24.0156 15.4392 24.0156C15.4086 23.9851 15.3781 23.9851 15.317 23.9546C15.2865 23.9851 15.2254 23.9851 15.1949 24.0156C15.0117 24.0156 14.7979 24.0462 14.6453 24.0767C14.6453 24.0156 14.6453 23.9546 14.5842 23.9546C14.4926 24.0767 14.3094 23.924 14.0956 23.9851C13.8819 23.924 14.2178 24.0767 14.5231 24.1378C14.4926 24.1683 14.462 24.1989 14.3704 24.2294ZM10.0955 24.6569C9.66801 24.2599 8.78248 24.0767 8.62981 23.7714C8.38552 23.7408 8.0191 23.2828 7.71375 23.2217C7.86642 23.2217 7.74428 23.1301 7.71375 23.069C7.65268 23.1301 7.59161 23.1607 7.53053 23.1607C7.53053 22.9164 7.28625 22.7637 7.0725 22.611C7.22518 22.7026 7.34732 22.7637 7.53053 22.7942C7.53053 22.7332 7.53053 22.6721 7.5916 22.6721C7.80535 22.8858 8.04963 23.0996 8.32445 23.3133C8.69088 23.6492 10.5841 24.5042 10.92 24.6569C10.92 24.6569 10.8589 24.779 10.8894 24.779C11.0421 24.8706 11.1642 24.6874 11.1948 24.9012C10.7062 24.9622 10.523 24.6263 10.0955 24.6569ZM24.1723 17.5727V17.6032C24.1417 17.6032 24.1723 17.5727 24.1723 17.5727ZM11.836 3.43485C11.8055 3.46539 11.7749 3.46539 11.7749 3.46539C11.7749 3.43485 11.8055 3.43485 11.836 3.43485ZM11.2558 3.58753C11.2558 3.61806 11.2558 3.61806 11.2558 3.58753C11.2558 3.61806 11.2558 3.61806 11.2558 3.58753C11.2558 3.58753 11.2558 3.61806 11.2558 3.58753ZM9.24051 4.22877C9.27105 4.19823 9.27105 4.19823 9.30158 4.19823C9.27105 4.19823 9.24051 4.22877 9.24051 4.22877ZM14.1262 3.2211C14.0651 3.2211 14.0346 3.2211 14.004 3.19057C14.0346 3.19057 14.0651 3.19057 14.0956 3.19057H14.1262C14.1262 3.19057 14.1262 3.19057 14.1262 3.2211ZM14.6758 3.28217C14.6453 3.25164 14.5537 3.2211 14.462 3.2211C14.462 3.19057 14.4926 3.16003 14.4926 3.16003C14.5231 3.16003 14.5537 3.16003 14.5842 3.16003C14.5842 3.16003 14.6147 3.16003 14.6147 3.19057C14.6147 3.19057 14.6147 3.19057 14.6147 3.16003C14.6453 3.16003 14.6453 3.16003 14.6758 3.16003C14.7063 3.2211 14.7369 3.25164 14.6758 3.28217ZM15.6835 3.37378C15.5308 3.40432 15.4392 3.34324 15.2865 3.25164C15.3781 3.25164 15.5002 3.28217 15.5919 3.31271C15.6224 3.31271 15.6529 3.34324 15.6835 3.37378ZM26.554 7.70979C26.493 7.74033 26.4624 7.74033 26.4013 7.61819C25.9128 6.57999 25.0273 5.08376 23.7448 3.83181C22.4928 2.54933 20.8134 1.51113 19.2866 0.961491C19.3782 0.992027 19.5004 1.0531 19.4393 1.11417C18.0957 0.595068 16.8133 0.289715 15.5919 0.167574C12.294 -0.351526 8.84355 0.350786 6.18698 2.06076C6.21752 2.12183 6.21752 2.15237 6.12591 2.21344C5.14878 2.82414 3.77469 3.89288 2.67542 5.2975C1.57615 6.70213 0.721164 8.47317 0.35474 10.061C0.385275 9.9694 0.415811 9.81673 0.476881 9.8778C-0.317036 13.0229 -0.103289 15.71 0.995981 18.0307C1.05705 17.9697 0.843305 17.6643 1.02652 17.6948C1.14866 18.0307 1.30133 18.3971 1.48455 18.733C1.69829 19.2216 1.94258 19.8628 2.27846 20.0155C1.42348 18.3361 0.843305 16.4124 0.782234 14.7024C0.904375 14.9467 0.87384 15.4658 1.05705 15.6795C1.11812 14.5192 0.843305 12.9619 1.24026 11.8626C1.14866 12.4428 1.08759 13.2367 1.14866 14.0306C1.14866 14.6108 1.42348 16.2291 1.60669 16.3818C1.57615 16.3513 1.57615 16.1986 1.60669 16.1986C1.69829 16.3818 1.48455 16.4734 1.63722 16.504C1.63722 16.4429 1.66776 16.4429 1.69829 16.4429C2.00365 17.1147 2.40061 18.1529 2.70596 18.672C3.07238 19.3437 3.56095 19.9544 4.11058 20.5041C4.11058 20.5346 4.14112 20.5346 4.14112 20.5652C4.20219 20.7178 4.41593 20.901 4.47701 21.0232C4.50754 21.0843 4.44647 21.1759 4.47701 21.2369C4.93503 22.0919 5.60681 22.9469 6.43126 23.6187C6.95036 24.2294 7.77482 24.8706 8.78248 25.4203C9.75961 25.9394 10.8894 26.3669 11.9276 26.6111C12.6605 26.7944 13.546 26.8249 14.0956 26.947C14.8285 27.0997 16.111 26.886 16.7522 26.7638C20.5996 26.1836 24.4166 23.5576 26.3403 19.7712C28.3251 15.9543 28.264 11.2824 26.554 7.70979Z" fill="black"/>
</svg>
